<mxfile host="Electron" agent="Mozilla/5.0 (Windows NT 10.0; Win64; x64) AppleWebKit/537.36 (KHTML, like Gecko) draw.io/24.7.8 Chrome/128.0.6613.36 Electron/32.0.1 Safari/537.36" version="24.7.8">
  <diagram name="Page-1" id="-H_mtQnk-PTXWXPvYvuk">
    <mxGraphModel dx="1434" dy="836" grid="1" gridSize="10" guides="1" tooltips="1" connect="1" arrows="1" fold="1" page="1" pageScale="1" pageWidth="1169" pageHeight="827" math="0" shadow="0">
      <root>
        <mxCell id="0" />
        <mxCell id="1" parent="0" />
        <mxCell id="1W-CH5vJLWAJPYwbB4RU-2" value="pymongo-api" style="rounded=1;whiteSpace=wrap;html=1;fillColor=#dae8fc;strokeColor=#6c8ebf;shadow=1;" parent="1" vertex="1">
          <mxGeometry x="440" y="320" width="120" height="60" as="geometry" />
        </mxCell>
        <mxCell id="1W-CH5vJLWAJPYwbB4RU-44" value="" style="group" parent="1" vertex="1" connectable="0">
          <mxGeometry x="215" y="414" width="370" height="285" as="geometry" />
        </mxCell>
        <mxCell id="1W-CH5vJLWAJPYwbB4RU-42" value="" style="group;dashed=1;dashPattern=1 1;" parent="1W-CH5vJLWAJPYwbB4RU-44" vertex="1" connectable="0">
          <mxGeometry y="30" width="370" height="255" as="geometry" />
        </mxCell>
        <mxCell id="1W-CH5vJLWAJPYwbB4RU-41" value="" style="rounded=0;whiteSpace=wrap;html=1;dashed=1;dashPattern=1 4;movable=0;resizable=0;rotatable=0;deletable=0;editable=0;locked=1;connectable=0;" parent="1W-CH5vJLWAJPYwbB4RU-42" vertex="1">
          <mxGeometry width="370" height="255" as="geometry" />
        </mxCell>
        <mxCell id="1W-CH5vJLWAJPYwbB4RU-17" value="shard1" style="rounded=1;whiteSpace=wrap;html=1;fillColor=#dae8fc;strokeColor=#6c8ebf;shadow=1;" parent="1W-CH5vJLWAJPYwbB4RU-42" vertex="1">
          <mxGeometry x="11" y="82.5" width="120" height="35" as="geometry" />
        </mxCell>
        <mxCell id="1W-CH5vJLWAJPYwbB4RU-8" value="router" style="rounded=1;whiteSpace=wrap;html=1;fillColor=#dae8fc;strokeColor=#6c8ebf;" parent="1W-CH5vJLWAJPYwbB4RU-42" vertex="1">
          <mxGeometry x="81" y="12.5" width="120" height="30" as="geometry" />
        </mxCell>
        <mxCell id="1W-CH5vJLWAJPYwbB4RU-11" value="primary server" style="rounded=0;whiteSpace=wrap;html=1;shadow=1;strokeColor=#6c8ebf;" parent="1W-CH5vJLWAJPYwbB4RU-42" vertex="1">
          <mxGeometry x="11" y="112.5" width="120" height="30" as="geometry" />
        </mxCell>
        <mxCell id="1W-CH5vJLWAJPYwbB4RU-12" value="secondary server" style="rounded=0;whiteSpace=wrap;html=1;shadow=1;strokeColor=#6c8ebf;" parent="1W-CH5vJLWAJPYwbB4RU-42" vertex="1">
          <mxGeometry x="11" y="142.5" width="120" height="30" as="geometry" />
        </mxCell>
        <mxCell id="1W-CH5vJLWAJPYwbB4RU-13" value="secondary server" style="rounded=0;whiteSpace=wrap;html=1;shadow=1;strokeColor=#6c8ebf;" parent="1W-CH5vJLWAJPYwbB4RU-42" vertex="1">
          <mxGeometry x="11" y="172.5" width="120" height="30" as="geometry" />
        </mxCell>
        <mxCell id="1W-CH5vJLWAJPYwbB4RU-18" value="config-svr" style="rounded=1;whiteSpace=wrap;html=1;fillColor=#dae8fc;strokeColor=#6c8ebf;" parent="1W-CH5vJLWAJPYwbB4RU-42" vertex="1">
          <mxGeometry x="241" y="12.5" width="120" height="30" as="geometry" />
        </mxCell>
        <mxCell id="1W-CH5vJLWAJPYwbB4RU-19" value="shard1" style="rounded=1;whiteSpace=wrap;html=1;fillColor=#dae8fc;strokeColor=#6c8ebf;shadow=1;" parent="1W-CH5vJLWAJPYwbB4RU-42" vertex="1">
          <mxGeometry x="151" y="82.5" width="120" height="35" as="geometry" />
        </mxCell>
        <mxCell id="1W-CH5vJLWAJPYwbB4RU-20" value="primary server" style="rounded=0;whiteSpace=wrap;html=1;shadow=1;strokeColor=#6c8ebf;" parent="1W-CH5vJLWAJPYwbB4RU-42" vertex="1">
          <mxGeometry x="151" y="112.5" width="120" height="30" as="geometry" />
        </mxCell>
        <mxCell id="1W-CH5vJLWAJPYwbB4RU-21" value="secondary server" style="rounded=0;whiteSpace=wrap;html=1;shadow=1;strokeColor=#6c8ebf;" parent="1W-CH5vJLWAJPYwbB4RU-42" vertex="1">
          <mxGeometry x="151" y="142.5" width="120" height="30" as="geometry" />
        </mxCell>
        <mxCell id="1W-CH5vJLWAJPYwbB4RU-22" value="secondary server" style="rounded=0;whiteSpace=wrap;html=1;shadow=1;strokeColor=#6c8ebf;" parent="1W-CH5vJLWAJPYwbB4RU-42" vertex="1">
          <mxGeometry x="151" y="172.5" width="120" height="30" as="geometry" />
        </mxCell>
        <mxCell id="1W-CH5vJLWAJPYwbB4RU-27" value="" style="endArrow=classic;html=1;rounded=1;exitX=0.5;exitY=1;exitDx=0;exitDy=0;entryX=0.5;entryY=0;entryDx=0;entryDy=0;edgeStyle=orthogonalEdgeStyle;elbow=vertical;" parent="1W-CH5vJLWAJPYwbB4RU-42" source="1W-CH5vJLWAJPYwbB4RU-8" target="1W-CH5vJLWAJPYwbB4RU-17" edge="1">
          <mxGeometry width="50" height="50" relative="1" as="geometry">
            <mxPoint x="101" y="72.5" as="sourcePoint" />
            <mxPoint x="151" y="22.5" as="targetPoint" />
          </mxGeometry>
        </mxCell>
        <mxCell id="1W-CH5vJLWAJPYwbB4RU-28" value="" style="endArrow=classic;html=1;rounded=1;exitX=0.5;exitY=1;exitDx=0;exitDy=0;entryX=0.5;entryY=0;entryDx=0;entryDy=0;edgeStyle=orthogonalEdgeStyle;elbow=vertical;" parent="1W-CH5vJLWAJPYwbB4RU-42" source="1W-CH5vJLWAJPYwbB4RU-8" target="1W-CH5vJLWAJPYwbB4RU-19" edge="1">
          <mxGeometry width="50" height="50" relative="1" as="geometry">
            <mxPoint x="151" y="52.5" as="sourcePoint" />
            <mxPoint x="81" y="92.5" as="targetPoint" />
          </mxGeometry>
        </mxCell>
        <mxCell id="1W-CH5vJLWAJPYwbB4RU-29" value="" style="endArrow=none;dashed=1;html=1;dashPattern=1 3;strokeWidth=1;rounded=0;exitX=1;exitY=0.5;exitDx=0;exitDy=0;entryX=0;entryY=0.5;entryDx=0;entryDy=0;" parent="1W-CH5vJLWAJPYwbB4RU-42" source="1W-CH5vJLWAJPYwbB4RU-11" target="1W-CH5vJLWAJPYwbB4RU-20" edge="1">
          <mxGeometry width="50" height="50" relative="1" as="geometry">
            <mxPoint x="101" y="72.5" as="sourcePoint" />
            <mxPoint x="151" y="22.5" as="targetPoint" />
          </mxGeometry>
        </mxCell>
        <mxCell id="1W-CH5vJLWAJPYwbB4RU-31" value="" style="endArrow=none;dashed=1;html=1;dashPattern=1 4;strokeWidth=1;rounded=0;" parent="1W-CH5vJLWAJPYwbB4RU-42" edge="1">
          <mxGeometry width="50" height="50" relative="1" as="geometry">
            <mxPoint x="132" y="157.5" as="sourcePoint" />
            <mxPoint x="152" y="157.5" as="targetPoint" />
          </mxGeometry>
        </mxCell>
        <mxCell id="1W-CH5vJLWAJPYwbB4RU-32" value="" style="endArrow=none;dashed=1;html=1;dashPattern=1 4;strokeWidth=1;rounded=0;entryX=0;entryY=0.5;entryDx=0;entryDy=0;" parent="1W-CH5vJLWAJPYwbB4RU-42" edge="1">
          <mxGeometry width="50" height="50" relative="1" as="geometry">
            <mxPoint x="133" y="186.5" as="sourcePoint" />
            <mxPoint x="153" y="186.5" as="targetPoint" />
          </mxGeometry>
        </mxCell>
        <mxCell id="1W-CH5vJLWAJPYwbB4RU-35" value="" style="endArrow=classic;html=1;rounded=1;exitX=1;exitY=0.5;exitDx=0;exitDy=0;entryX=0;entryY=0.5;entryDx=0;entryDy=0;edgeStyle=orthogonalEdgeStyle;elbow=vertical;" parent="1W-CH5vJLWAJPYwbB4RU-42" source="1W-CH5vJLWAJPYwbB4RU-8" target="1W-CH5vJLWAJPYwbB4RU-18" edge="1">
          <mxGeometry width="50" height="50" relative="1" as="geometry">
            <mxPoint x="271" y="62.5" as="sourcePoint" />
            <mxPoint x="341" y="102.5" as="targetPoint" />
          </mxGeometry>
        </mxCell>
        <mxCell id="1W-CH5vJLWAJPYwbB4RU-43" value="mongodb" style="text;html=1;align=center;verticalAlign=middle;whiteSpace=wrap;rounded=0;" parent="1W-CH5vJLWAJPYwbB4RU-44" vertex="1">
          <mxGeometry x="310" width="60" height="30" as="geometry" />
        </mxCell>
        <mxCell id="clYfdE4Pl4Mczb4dT9UR-1" value="pymongo-api" style="rounded=1;whiteSpace=wrap;html=1;fillColor=#dae8fc;strokeColor=#6c8ebf;shadow=1;" parent="1" vertex="1">
          <mxGeometry x="170" y="320" width="120" height="60" as="geometry" />
        </mxCell>
        <mxCell id="clYfdE4Pl4Mczb4dT9UR-3" style="edgeStyle=orthogonalEdgeStyle;rounded=1;orthogonalLoop=1;jettySize=auto;html=1;entryX=0.5;entryY=0;entryDx=0;entryDy=0;entryPerimeter=0;curved=0;fillColor=#1ba1e2;strokeColor=#006EAF;" parent="1" target="clYfdE4Pl4Mczb4dT9UR-2" edge="1">
          <mxGeometry relative="1" as="geometry">
            <mxPoint x="490" y="380" as="sourcePoint" />
            <Array as="points">
              <mxPoint x="490" y="380" />
              <mxPoint x="490" y="420" />
              <mxPoint x="110" y="420" />
            </Array>
          </mxGeometry>
        </mxCell>
        <mxCell id="clYfdE4Pl4Mczb4dT9UR-2" value="Redis" style="shape=cylinder3;whiteSpace=wrap;html=1;boundedLbl=1;backgroundOutline=1;size=15;container=0;shadow=1;" parent="1" vertex="1">
          <mxGeometry x="80" y="470" width="60" height="80" as="geometry" />
        </mxCell>
        <mxCell id="clYfdE4Pl4Mczb4dT9UR-32" value="" style="endArrow=none;html=1;rounded=1;curved=0;fillColor=#1ba1e2;strokeColor=#006EAF;" parent="1" edge="1">
          <mxGeometry width="50" height="50" relative="1" as="geometry">
            <mxPoint x="200" y="420" as="sourcePoint" />
            <mxPoint x="220" y="380" as="targetPoint" />
            <Array as="points">
              <mxPoint x="220" y="420" />
            </Array>
          </mxGeometry>
        </mxCell>
        <mxCell id="clYfdE4Pl4Mczb4dT9UR-35" value="" style="endArrow=classic;html=1;rounded=1;fillColor=#60a917;strokeColor=#2D7600;curved=0;" parent="1" edge="1">
          <mxGeometry width="50" height="50" relative="1" as="geometry">
            <mxPoint x="720" y="420" as="sourcePoint" />
            <mxPoint x="780" y="420" as="targetPoint" />
          </mxGeometry>
        </mxCell>
        <mxCell id="clYfdE4Pl4Mczb4dT9UR-36" value="Вызовы базы" style="text;html=1;align=center;verticalAlign=middle;whiteSpace=wrap;rounded=0;fontSize=8;" parent="1" vertex="1">
          <mxGeometry x="789" y="405" width="70" height="30" as="geometry" />
        </mxCell>
        <mxCell id="clYfdE4Pl4Mczb4dT9UR-37" value="" style="endArrow=classic;html=1;rounded=1;fillColor=#1ba1e2;strokeColor=#006EAF;curved=0;" parent="1" edge="1">
          <mxGeometry width="50" height="50" relative="1" as="geometry">
            <mxPoint x="720" y="440" as="sourcePoint" />
            <mxPoint x="780" y="440" as="targetPoint" />
          </mxGeometry>
        </mxCell>
        <mxCell id="clYfdE4Pl4Mczb4dT9UR-38" value="Вызовы кэша" style="text;html=1;align=center;verticalAlign=middle;whiteSpace=wrap;rounded=0;fontSize=8;" parent="1" vertex="1">
          <mxGeometry x="784" y="425" width="80" height="30" as="geometry" />
        </mxCell>
        <mxCell id="clYfdE4Pl4Mczb4dT9UR-41" value="APISIX Gateway" style="rounded=1;whiteSpace=wrap;html=1;fillColor=#dae8fc;strokeColor=#6c8ebf;shadow=1;" parent="1" vertex="1">
          <mxGeometry x="170" y="180" width="120" height="60" as="geometry" />
        </mxCell>
        <mxCell id="clYfdE4Pl4Mczb4dT9UR-42" value="consul_kv" style="rounded=1;whiteSpace=wrap;html=1;fillColor=#dae8fc;strokeColor=#6c8ebf;shadow=1;" parent="1" vertex="1">
          <mxGeometry x="280" y="200" width="80" height="20" as="geometry" />
        </mxCell>
        <mxCell id="clYfdE4Pl4Mczb4dT9UR-43" value="Consul" style="rounded=1;whiteSpace=wrap;html=1;fillColor=#dae8fc;strokeColor=#6c8ebf;shadow=1;" parent="1" vertex="1">
          <mxGeometry x="440" y="195" width="90" height="30" as="geometry" />
        </mxCell>
        <mxCell id="clYfdE4Pl4Mczb4dT9UR-44" value="" style="endArrow=classic;html=1;rounded=1;exitX=1;exitY=0.5;exitDx=0;exitDy=0;entryX=0;entryY=0.5;entryDx=0;entryDy=0;curved=0;fillColor=#e51400;strokeColor=#B20000;" parent="1" source="clYfdE4Pl4Mczb4dT9UR-42" target="clYfdE4Pl4Mczb4dT9UR-43" edge="1">
          <mxGeometry width="50" height="50" relative="1" as="geometry">
            <mxPoint x="400" y="430" as="sourcePoint" />
            <mxPoint x="450" y="380" as="targetPoint" />
          </mxGeometry>
        </mxCell>
        <mxCell id="clYfdE4Pl4Mczb4dT9UR-45" value="" style="endArrow=classic;html=1;rounded=1;exitX=0.333;exitY=1.022;exitDx=0;exitDy=0;entryX=0.326;entryY=-0.019;entryDx=0;entryDy=0;curved=0;exitPerimeter=0;entryPerimeter=0;fillColor=#e51400;strokeColor=#B20000;" parent="1" source="clYfdE4Pl4Mczb4dT9UR-41" target="clYfdE4Pl4Mczb4dT9UR-1" edge="1">
          <mxGeometry width="50" height="50" relative="1" as="geometry">
            <mxPoint x="370" y="220" as="sourcePoint" />
            <mxPoint x="450" y="220" as="targetPoint" />
          </mxGeometry>
        </mxCell>
        <mxCell id="clYfdE4Pl4Mczb4dT9UR-46" value="" style="endArrow=classic;html=1;rounded=1;exitX=0.424;exitY=1.036;exitDx=0;exitDy=0;entryX=0.5;entryY=0;entryDx=0;entryDy=0;curved=0;exitPerimeter=0;fillColor=#e51400;strokeColor=#B20000;" parent="1" source="clYfdE4Pl4Mczb4dT9UR-41" target="1W-CH5vJLWAJPYwbB4RU-2" edge="1">
          <mxGeometry width="50" height="50" relative="1" as="geometry">
            <mxPoint x="220" y="251" as="sourcePoint" />
            <mxPoint x="219" y="329" as="targetPoint" />
            <Array as="points">
              <mxPoint x="221" y="280" />
              <mxPoint x="500" y="280" />
            </Array>
          </mxGeometry>
        </mxCell>
        <mxCell id="clYfdE4Pl4Mczb4dT9UR-49" value="" style="endArrow=classic;html=1;rounded=0;curved=0;fillColor=#e51400;strokeColor=#B20000;" parent="1" edge="1">
          <mxGeometry width="50" height="50" relative="1" as="geometry">
            <mxPoint x="731" y="460" as="sourcePoint" />
            <mxPoint x="781" y="460" as="targetPoint" />
            <Array as="points">
              <mxPoint x="720" y="460" />
              <mxPoint x="731" y="460" />
            </Array>
          </mxGeometry>
        </mxCell>
        <mxCell id="clYfdE4Pl4Mczb4dT9UR-50" value="Вызовы apigateway" style="text;html=1;align=center;verticalAlign=middle;whiteSpace=wrap;rounded=0;fontSize=8;" parent="1" vertex="1">
          <mxGeometry x="785" y="445" width="100" height="30" as="geometry" />
        </mxCell>
        <mxCell id="clYfdE4Pl4Mczb4dT9UR-51" value="" style="endArrow=classic;html=1;rounded=1;exitX=0.5;exitY=0;exitDx=0;exitDy=0;entryX=0.5;entryY=1;entryDx=0;entryDy=0;curved=0;fillColor=#647687;strokeColor=#314354;" parent="1" source="clYfdE4Pl4Mczb4dT9UR-1" target="clYfdE4Pl4Mczb4dT9UR-43" edge="1">
          <mxGeometry width="50" height="50" relative="1" as="geometry">
            <mxPoint x="430" y="420" as="sourcePoint" />
            <mxPoint x="480" y="370" as="targetPoint" />
            <Array as="points">
              <mxPoint x="230" y="270" />
              <mxPoint x="485" y="270" />
            </Array>
          </mxGeometry>
        </mxCell>
        <mxCell id="clYfdE4Pl4Mczb4dT9UR-54" value="" style="endArrow=classic;html=1;rounded=1;exitX=0.597;exitY=0.013;exitDx=0;exitDy=0;exitPerimeter=0;entryX=0.787;entryY=0.98;entryDx=0;entryDy=0;entryPerimeter=0;curved=0;fillColor=#647687;strokeColor=#314354;" parent="1" source="1W-CH5vJLWAJPYwbB4RU-2" target="clYfdE4Pl4Mczb4dT9UR-43" edge="1">
          <mxGeometry width="50" height="50" relative="1" as="geometry">
            <mxPoint x="450" y="310" as="sourcePoint" />
            <mxPoint x="500" y="260" as="targetPoint" />
          </mxGeometry>
        </mxCell>
        <mxCell id="clYfdE4Pl4Mczb4dT9UR-55" value="" style="endArrow=classic;html=1;rounded=1;fillColor=#647687;strokeColor=#314354;curved=0;" parent="1" edge="1">
          <mxGeometry width="50" height="50" relative="1" as="geometry">
            <mxPoint x="720" y="480" as="sourcePoint" />
            <mxPoint x="780" y="480" as="targetPoint" />
          </mxGeometry>
        </mxCell>
        <mxCell id="clYfdE4Pl4Mczb4dT9UR-56" value="Вызовы сервисов" style="text;html=1;align=center;verticalAlign=middle;whiteSpace=wrap;rounded=0;fontSize=8;" parent="1" vertex="1">
          <mxGeometry x="797" y="465" width="70" height="30" as="geometry" />
        </mxCell>
        <mxCell id="clYfdE4Pl4Mczb4dT9UR-25" value="" style="endArrow=none;html=1;rounded=1;curved=0;fillColor=#60a917;strokeColor=#2D7600;" parent="1" edge="1">
          <mxGeometry width="50" height="50" relative="1" as="geometry">
            <mxPoint x="230" y="380" as="sourcePoint" />
            <mxPoint x="500" y="380" as="targetPoint" />
            <Array as="points">
              <mxPoint x="230" y="430" />
              <mxPoint x="360" y="430" />
              <mxPoint x="500" y="430" />
            </Array>
          </mxGeometry>
        </mxCell>
        <mxCell id="clYfdE4Pl4Mczb4dT9UR-26" value="" style="endArrow=classic;html=1;rounded=0;fillColor=#60a917;strokeColor=#2D7600;" parent="1" target="1W-CH5vJLWAJPYwbB4RU-8" edge="1">
          <mxGeometry width="50" height="50" relative="1" as="geometry">
            <mxPoint x="356" y="430" as="sourcePoint" />
            <mxPoint x="343.2258064516129" y="520" as="targetPoint" />
          </mxGeometry>
        </mxCell>
        <mxCell id="clYfdE4Pl4Mczb4dT9UR-57" value="Сайт React/nginx" style="rounded=1;whiteSpace=wrap;html=1;shadow=1;" parent="1" vertex="1">
          <mxGeometry x="170" y="80" width="120" height="60" as="geometry" />
        </mxCell>
        <mxCell id="clYfdE4Pl4Mczb4dT9UR-58" value="" style="endArrow=classic;html=1;rounded=0;exitX=0.5;exitY=1;exitDx=0;exitDy=0;" parent="1" source="clYfdE4Pl4Mczb4dT9UR-57" target="clYfdE4Pl4Mczb4dT9UR-41" edge="1">
          <mxGeometry width="50" height="50" relative="1" as="geometry">
            <mxPoint x="290" y="400" as="sourcePoint" />
            <mxPoint x="340" y="350" as="targetPoint" />
          </mxGeometry>
        </mxCell>
        <mxCell id="clYfdE4Pl4Mczb4dT9UR-59" value="CDN" style="ellipse;shape=cloud;whiteSpace=wrap;html=1;shadow=1;" parent="1" vertex="1">
          <mxGeometry x="440" y="70" width="120" height="80" as="geometry" />
        </mxCell>
        <mxCell id="clYfdE4Pl4Mczb4dT9UR-61" style="edgeStyle=orthogonalEdgeStyle;rounded=0;orthogonalLoop=1;jettySize=auto;html=1;exitX=1;exitY=0.5;exitDx=0;exitDy=0;entryX=0.067;entryY=0.5;entryDx=0;entryDy=0;entryPerimeter=0;fillColor=#e3c800;strokeColor=#B09500;" parent="1" source="clYfdE4Pl4Mczb4dT9UR-57" target="clYfdE4Pl4Mczb4dT9UR-59" edge="1">
          <mxGeometry relative="1" as="geometry" />
        </mxCell>
        <mxCell id="clYfdE4Pl4Mczb4dT9UR-62" value="" style="endArrow=classic;html=1;rounded=1;fillColor=#e3c800;strokeColor=#B09500;curved=0;" parent="1" edge="1">
          <mxGeometry width="50" height="50" relative="1" as="geometry">
            <mxPoint x="720" y="400" as="sourcePoint" />
            <mxPoint x="780" y="400" as="targetPoint" />
          </mxGeometry>
        </mxCell>
        <mxCell id="clYfdE4Pl4Mczb4dT9UR-63" value="Вызовы CDN" style="text;html=1;align=center;verticalAlign=middle;whiteSpace=wrap;rounded=0;fontSize=8;" parent="1" vertex="1">
          <mxGeometry x="789" y="385" width="70" height="30" as="geometry" />
        </mxCell>
      </root>
    </mxGraphModel>
  </diagram>
</mxfile>
